<svg width="32" height="44" viewBox="0 0 32 44" fill="none" xmlns="http://www.w3.org/2000/svg">
<path d="M16 8.25C11.5887 8.25 8 11.9509 8 16.5C8 21.0491 11.5887 24.75 16 24.75C20.4113 24.75 24 21.0491 24 16.5C24 11.9509 20.4113 8.25 16 8.25ZM16 22C13.0592 22 10.6667 19.5327 10.6667 16.5C10.6667 13.4673 13.0592 11 16 11C18.9408 11 21.3333 13.4673 21.3333 16.5C21.3333 19.5327 18.9408 22 16 22ZM16 0C7.16342 0 0 7.38727 0 16.5C0 23.1527 2.2475 25.0105 14.3557 43.1123C15.1502 44.2958 16.8498 44.296 17.6444 43.1123C29.7525 25.0105 32 23.1527 32 16.5C32 7.38727 24.8366 0 16 0ZM16 40.7285C4.39208 23.4169 2.66667 22.0425 2.66667 16.5C2.66667 12.8272 4.05358 9.37432 6.57192 6.77729C9.09025 4.18026 12.4385 2.75 16 2.75C19.5615 2.75 22.9097 4.18026 25.4281 6.77729C27.9464 9.37432 29.3333 12.8272 29.3333 16.5C29.3333 22.0421 27.609 23.4154 16 40.7285Z" fill="#662D91"/>
</svg>
