<svg id="Layer_1" data-name="Layer 1" xmlns="http://www.w3.org/2000/svg" viewBox="0 0 221 590"><defs><style>.cls-1{fill:#662d91;fill-opacity:0.5;opacity:0.1;isolation:isolate;}</style></defs><title>Pin</title><path class="cls-1" d="M0,110.62c-60.93,0-110.5,49.63-110.5,110.63S-60.93,331.88,0,331.88s110.5-49.63,110.5-110.63S60.93,110.62,0,110.62ZM0,295A73.75,73.75,0,0,1,0,147.5a73.79,73.79,0,0,1,73.67,73.75A73.79,73.79,0,0,1,0,295ZM0,0C-122.06,0-221,99.06-221,221.25c0,89.21,31,114.12,198.29,356.85a27.62,27.62,0,0,0,45.42,0C190,335.37,221,310.46,221,221.25,221,99.06,122.06,0,0,0ZM0,546.13C-160.33,314-184.17,295.57-184.17,221.25A183.27,183.27,0,0,1-130.23,90.88,182.85,182.85,0,0,1,0,36.88a182.85,182.85,0,0,1,130.23,54,183.27,183.27,0,0,1,53.94,130.37C184.17,295.57,160.35,314,0,546.13Z"/></svg>